<svg width="104" height="70" viewBox="0 0 104 70" fill="none" xmlns="http://www.w3.org/2000/svg">
  <ellipse cx="52" cy="22" rx="34" ry="15" fill="#EF2A73" stroke="#B51F59" stroke-width="2"/>
  <path d="M10 29c5 24 15 31 42 31s37-7 42-31c-23 10-61 10-84 0Z" fill="#FF4387" stroke="#B51F59" stroke-width="2"/>
  <path d="M33 28h38l-6 20H39l-6-20Z" fill="#E71965"/>
  <circle cx="52" cy="42" r="4" fill="#fff"/>
  <circle cx="46" cy="35" r="3" fill="#fff"/>
  <circle cx="58" cy="35" r="3" fill="#fff"/>
  <g fill="#F8B529">
    <circle cx="38" cy="19" r="4"/><circle cx="46" cy="18" r="4"/><circle cx="54" cy="18" r="4"/><circle cx="62" cy="19" r="4"/><circle cx="69" cy="21" r="4"/><circle cx="42" cy="24" r="4"/><circle cx="51" cy="24" r="4"/><circle cx="60" cy="25" r="4"/>
  </g>
</svg>
