<svg width="444" height="401" viewBox="0 0 444 401" fill="none" xmlns="http://www.w3.org/2000/svg">
  <rect width="444" height="401" rx="18" fill="#eec0b2"/>
  <rect width="444" height="401" rx="18" fill="url(#g)" opacity=".75"/>
  <path d="M39 203C66 66 238 14 355 91c91 60 103 198 28 270-75 73-250 49-317-38-27-35-34-80-27-120Z" fill="#c9b0a5"/>
  <path d="M92 155 123 32l82 90M313 129 372 48l3 126" fill="#8a6c65"/>
  <path d="M91 183c33-84 157-114 238-58 91 63 87 206-21 246-105 38-249-26-217-188Z" fill="#b8978c"/>
  <path d="M55 257c44 18 95 15 145-15M255 232c51 3 94 20 129 52" stroke="#f6e6df" stroke-width="7" stroke-linecap="round" opacity=".8"/>
  <ellipse cx="158" cy="230" rx="32" ry="45" fill="#1d1718" transform="rotate(-15 158 230)"/>
  <ellipse cx="310" cy="245" rx="30" ry="40" fill="#1d1718" transform="rotate(20 310 245)"/>
  <circle cx="170" cy="214" r="8" fill="#fff"/>
  <circle cx="300" cy="230" r="8" fill="#fff"/>
  <path d="M218 285c13-13 41-12 51 3-9 17-41 15-51-3Z" fill="#5c3631"/>
  <defs>
    <linearGradient id="g" x1="0" x2="444" y1="0" y2="401">
      <stop stop-color="#f48592"/>
      <stop offset=".45" stop-color="#c7e9ff"/>
      <stop offset="1" stop-color="#ffcc9f"/>
    </linearGradient>
  </defs>
</svg>
