<svg width="132" height="132" viewBox="0 0 132 132" fill="none" xmlns="http://www.w3.org/2000/svg">
  <circle cx="66" cy="66" r="64" fill="#fff" stroke="#fff" stroke-width="4"/>
  <circle cx="66" cy="66" r="56" fill="#d8944d"/>
  <path d="M31 54 44 18l19 27M101 54 88 18 69 45" fill="#a96838"/>
  <path d="M39 42c7-14 45-15 54 0 15 25 1 57-27 57S25 67 39 42Z" fill="#d99b62"/>
  <path d="M47 57c9-8 30-9 39 0 12 11 7 34-20 34S34 68 47 57Z" fill="#efc493"/>
  <circle cx="50" cy="58" r="6" fill="#221714"/>
  <circle cx="82" cy="58" r="6" fill="#221714"/>
  <circle cx="52" cy="56" r="2" fill="#fff"/>
  <circle cx="84" cy="56" r="2" fill="#fff"/>
  <path d="M66 67c6 0 9 3 6 7-2 3-10 3-12 0-3-4 0-7 6-7Z" fill="#6d3329"/>
  <path d="M64 75c-4 7-12 7-18 2M68 75c4 7 12 7 18 2" stroke="#6d3329" stroke-width="3" stroke-linecap="round"/>
</svg>
